<?xml version="1.0" encoding="UTF-8"?>
<svg width="256" height="256" viewBox="0 0 256 256" xmlns="http://www.w3.org/2000/svg">
  <defs>
    <linearGradient id="g" x1="0" y1="0" x2="1" y2="1">
      <stop offset="0" stop-color="#ffd166"/>
      <stop offset="1" stop-color="#ffb000"/>
    </linearGradient>
  </defs>
  <!-- Bowl -->
  <path d="M48 96 h160 l-16 64 H64 Z" fill="url(#g)" stroke="#a66f00" stroke-width="6" />
  <!-- Handles -->
  <path d="M40 84 q-28 6 -28 36 q0 28 28 36" fill="none" stroke="#ffb000" stroke-width="12" stroke-linecap="round"/>
  <path d="M216 84 q28 6 28 36 q0 28 -28 36" fill="none" stroke="#ffb000" stroke-width="12" stroke-linecap="round"/>
  <!-- Stem + Base -->
  <rect x="96" y="160" width="64" height="36" rx="6" fill="url(#g)" stroke="#a66f00" stroke-width="6"/>
  <rect x="64" y="200" width="128" height="28" rx="10" fill="url(#g)" stroke="#a66f00" stroke-width="6"/>
  <!-- Eyes -->
  <ellipse cx="104" cy="132" rx="16" ry="12" fill="#fff" stroke="#2A2F45" stroke-width="3"/>
  <ellipse cx="152" cy="132" rx="16" ry="12" fill="#fff" stroke="#2A2F45" stroke-width="3"/>
  <circle cx="104" cy="132" r="6" fill="#2A2F45"/>
  <circle cx="152" cy="132" r="6" fill="#2A2F45"/>
  <!-- Smile -->
  <path d="M96 152 q32 18 64 0" fill="none" stroke="#2A2F45" stroke-width="5" stroke-linecap="round"/>
</svg>
